HIERARCHY
ROOT Pelvis
{
	OFFSET 0.000000 0.000000 0.000000
	CHANNELS 6 Xposition Yposition Zposition Xrotation Yrotation Zrotation
	JOINT LeftUpLeg_virtual
	{
		OFFSET 0.000000 0.000000 0.000000
		CHANNELS 3 Xrotation Yrotation Zrotation
		JOINT LeftUpLeg
		{
			OFFSET 18.735201 -5.666702 -4.541200
			CHANNELS 3 Xrotation Yrotation Zrotation
			JOINT LeftLeg
			{
				OFFSET -0.021200 -31.938179 0.493100
				CHANNELS 3 Xrotation Yrotation Zrotation
				JOINT LeftFoot
				{
					OFFSET 0.021200 -31.938179 -4.336299
					CHANNELS 3 Xrotation Yrotation Zrotation
					JOINT LeftToeBase
					{
						OFFSET 0.943001 -26.722000 15.023500
						CHANNELS 3 Xrotation Yrotation Zrotation
						End Site
						{
							OFFSET 0 0 0
						}
					}
				}
			}
		}
	}
	JOINT RightUpLeg_virtual
	{
		OFFSET 0.000000 0.000000 0.000000
		CHANNELS 3 Xrotation Yrotation Zrotation
		JOINT RightUpLeg
		{
			OFFSET -18.735201 -5.666702 -4.541200
			CHANNELS 3 Xrotation Yrotation Zrotation
			JOINT RightLeg
			{
				OFFSET 0.018946 -31.938133 0.493100
				CHANNELS 3 Xrotation Yrotation Zrotation
				JOINT RightFoot
				{
					OFFSET -0.018946 -31.938126 -4.336299
					CHANNELS 3 Xrotation Yrotation Zrotation
					JOINT RightToeBase
					{
						OFFSET -0.943001 -26.722004 15.023500
						CHANNELS 3 Xrotation Yrotation Zrotation
						End Site
						{
							OFFSET 0 0 0
						}
					}
				}
			}
		}
	}
	JOINT Hips_virtual
	{
		OFFSET 0.000000 0.000000 0.000000
		CHANNELS 3 Xrotation Yrotation Zrotation
		JOINT Hips
		{
			OFFSET -0.000000 -0.000000 -0.000000
			CHANNELS 3 Xrotation Yrotation Zrotation
			JOINT Spine
			{
				OFFSET 0.000000 10.199997 -0.299500
				CHANNELS 3 Xrotation Yrotation Zrotation
				JOINT Spine1
				{
					OFFSET 0.000000 11.900002 -1.516600
					CHANNELS 3 Xrotation Yrotation Zrotation
					JOINT Spine2
					{
						OFFSET 0.000000 13.600006 -2.842500
						CHANNELS 3 Xrotation Yrotation Zrotation
						JOINT Neck_virtual
						{
							OFFSET 0.000000 0.000000 0.000000
							CHANNELS 3 Xrotation Yrotation Zrotation
							JOINT Neck
							{
								OFFSET 0.000000 9.624100 -2.890100
								CHANNELS 3 Xrotation Yrotation Zrotation
								JOINT Head
								{
									OFFSET 0.000000 14.068802 -1.351900
									CHANNELS 3 Xrotation Yrotation Zrotation
									End Site
									{
										OFFSET 0 0 0
									}
								}
							}
						}
						JOINT LeftShoulder_virtual
						{
							OFFSET 0.000000 0.000000 0.000000
							CHANNELS 3 Xrotation Yrotation Zrotation
							JOINT LeftShoulder
							{
								OFFSET 15.263000 10.923401 -0.547700
								CHANNELS 3 Xrotation Yrotation Zrotation
								JOINT LeftArm
								{
									OFFSET 25.438599 -2.830597 -13.032500
									CHANNELS 3 Xrotation Yrotation Zrotation
									JOINT LeftForeArm
									{
										OFFSET 29.960503 0.000000 0.000000
										CHANNELS 3 Xrotation Yrotation Zrotation
										JOINT LeftHand
										{
											OFFSET 27.849251 0.000000 0.000000
											CHANNELS 3 Xrotation Yrotation Zrotation
											End Site
											{
												OFFSET 0 0 0
											}
										}
									}
								}
							}
						}
						JOINT RightShoulder_virtual
						{
							OFFSET 0.000000 0.000000 0.000000
							CHANNELS 3 Xrotation Yrotation Zrotation
							JOINT RightShoulder
							{
								OFFSET -15.263000 10.923401 -0.547700
								CHANNELS 3 Xrotation Yrotation Zrotation
								JOINT RightArm
								{
									OFFSET -25.438599 -2.830597 -13.032500
									CHANNELS 3 Xrotation Yrotation Zrotation
									JOINT RightForeArm
									{
										OFFSET -29.960503 0.000000 0.000000
										CHANNELS 3 Xrotation Yrotation Zrotation
										JOINT RightHand
										{
											OFFSET -27.849251 0.000000 0.000000
											CHANNELS 3 Xrotation Yrotation Zrotation
											End Site
											{
												OFFSET 0 0 0
											}
										}
									}
								}
							}
						}
					}
				}
			}
		}
	}
}
MOTION
Frames: 10
Frame Time: 0.03333333
9.764823 90.593987 2.524929 0.000000 0.000000 0.000000 9.487006 -29.057547 -1.829912 -30.560770 5.618526 11.831600 39.258838 18.572013 -4.870634 -13.024152 19.756107 -0.645547 0.000000 0.000000 0.000000 12.676619 -67.646002 11.484504 -30.211006 -25.252690 -18.662964 35.835988 -5.226198 -0.966890 -15.459022 -8.206252 5.967897 0.000000 0.000000 0.000000 -4.179013 -27.661706 0.402429 1.969574 -12.253622 -2.275996 8.602686 -4.288576 -0.885348 3.047818 -2.242614 -0.262832 0.000000 0.000000 0.000000 -4.280574 -3.976003 -2.119285 -4.164189 -1.340709 -1.003852 0.000000 0.000000 0.000000 -2.743338 -2.495731 -0.023449 -3.944298 -5.141383 -9.234098 1.470507 5.607311 -55.573735 1.400849 -29.022720 -5.008672 0.000000 0.000000 0.000000 -3.622510 -3.480621 -1.735325 -5.461675 -7.228088 -0.904977 3.123370 0.187366 54.739001 -1.235519 62.481464 7.708621 0.000000 0.000000 0.000000 
9.425402 90.588760 2.167404 0.000000 0.000000 0.000000 9.492651 -29.915518 -1.458785 -30.744471 5.296316 12.129126 39.926363 18.811898 -5.294991 -12.555921 20.168674 -1.020640 0.000000 0.000000 0.000000 13.858553 -68.444014 12.426684 -29.779509 -25.652411 -18.711184 35.774895 -5.437003 -0.708445 -15.439999 -8.547334 6.236479 0.000000 0.000000 0.000000 -4.382871 -28.525409 0.341360 1.911644 -13.044471 -2.326852 8.485042 -4.158460 -0.919208 2.950236 -2.173885 -0.271340 0.000000 0.000000 0.000000 -4.373019 -3.887489 -2.081721 -4.181012 -1.262668 -1.010330 0.000000 0.000000 0.000000 -2.796593 -2.486072 0.035475 -3.934532 -5.212927 -8.883823 1.453673 5.338073 -55.184025 1.604836 -29.001048 -4.929906 0.000000 0.000000 0.000000 -3.726489 -3.387898 -1.665896 -5.425863 -6.846430 -0.656880 2.952957 -0.479504 54.695223 -1.408693 61.813601 7.750540 0.000000 0.000000 0.000000 
9.088241 90.601372 1.797292 0.000000 0.000000 0.000000 9.462004 -30.871861 -1.074624 -30.978040 4.934209 12.430735 40.705530 18.893225 -5.671580 -11.945290 20.430363 -1.421842 0.000000 0.000000 0.000000 15.060190 -68.962412 13.408386 -29.271530 -25.983484 -18.660874 35.710240 -5.568996 -0.541443 -15.409221 -8.767280 6.409801 0.000000 0.000000 0.000000 -4.569673 -29.361641 0.285978 1.901546 -13.859065 -2.361898 8.392274 -4.025144 -0.933519 2.864635 -2.104903 -0.267171 0.000000 0.000000 0.000000 -4.451283 -3.816856 -2.021366 -4.191285 -1.195876 -1.006580 0.000000 0.000000 0.000000 -2.846853 -2.484122 0.102936 -3.924868 -5.314531 -8.516744 1.441976 5.063320 -54.829928 1.805505 -28.975763 -4.872307 0.000000 0.000000 0.000000 -3.817331 -3.306719 -1.585829 -5.379501 -6.504618 -0.376098 2.803048 -1.147579 54.657151 -1.554806 61.099225 7.768334 0.000000 0.000000 0.000000 
8.757595 90.629356 1.413167 0.000000 0.000000 0.000000 9.385196 -31.943449 -0.688515 -31.270477 4.528747 12.724755 41.572797 18.792904 -5.980383 -11.202062 20.512588 -1.843556 0.000000 0.000000 0.000000 16.265940 -69.225688 14.408276 -28.681962 -26.253220 -18.515465 35.643202 -5.641543 -0.455011 -15.371122 -8.889817 6.492699 0.000000 0.000000 0.000000 -4.742111 -30.165746 0.234864 1.931705 -14.691928 -2.381572 8.322559 -3.890486 -0.928106 2.790181 -2.036324 -0.250086 0.000000 0.000000 0.000000 -4.514641 -3.765051 -1.939822 -4.194744 -1.141058 -0.993114 0.000000 0.000000 0.000000 -2.894202 -2.491466 0.177851 -3.915507 -5.452148 -8.137416 1.427046 4.778061 -54.513529 1.999160 -28.957892 -4.837360 0.000000 0.000000 0.000000 -3.896509 -3.238058 -1.496102 -5.324620 -6.207816 -0.067008 2.673144 -1.815934 54.620644 -1.675390 60.340582 7.762829 0.000000 0.000000 0.000000 
8.435672 90.670731 1.013076 0.000000 0.000000 0.000000 9.253697 -33.138763 -0.314693 -31.629356 4.080100 12.998277 42.497027 18.494979 -6.204181 -10.345222 20.391943 -2.280643 0.000000 0.000000 0.000000 17.463515 -69.265686 15.409303 -28.011215 -26.470477 -18.281543 35.573015 -5.678068 -0.434191 -15.331664 -8.944494 6.493695 0.000000 0.000000 0.000000 -4.902696 -30.933367 0.186418 1.992186 -15.531729 -2.389290 8.272816 -3.755163 -0.904031 2.725253 -1.968108 -0.220499 0.000000 0.000000 0.000000 -4.563186 -3.731866 -1.840447 -4.191568 -1.098406 -0.971350 0.000000 0.000000 0.000000 -2.938677 -2.508489 0.258584 -3.906239 -5.628211 -7.751842 1.402734 4.477881 -54.235076 2.183210 -28.957451 -4.825056 0.000000 0.000000 0.000000 -3.965259 -3.181823 -1.398444 -5.262837 -5.957894 0.263641 2.563668 -2.482511 54.579949 -1.770511 59.540726 7.733334 0.000000 0.000000 0.000000 
8.122348 90.724319 0.595209 0.000000 0.000000 0.000000 9.061460 -34.454691 0.032050 -32.059907 3.592325 13.240191 43.444685 17.992982 -6.330785 -9.400326 20.053010 -2.728232 0.000000 0.000000 0.000000 18.639267 -69.116228 16.394851 -27.267010 -26.642968 -17.968956 35.495889 -5.701620 -0.462739 -15.298558 -8.961401 6.423661 0.000000 0.000000 0.000000 -5.053391 -31.660925 0.139203 2.071125 -16.361728 -2.391521 8.238928 -3.618668 -0.863491 2.667556 -1.899556 -0.179432 0.000000 0.000000 0.000000 -4.597414 -3.715798 -1.728223 -4.182173 -1.067492 -0.943557 0.000000 0.000000 0.000000 -2.980452 -2.534166 0.342995 -3.896653 -5.840780 -7.367287 1.365212 4.159639 -53.993144 2.356062 -28.982825 -4.833987 0.000000 0.000000 0.000000 -4.024596 -3.136784 -1.295184 -5.195406 -5.753083 0.607425 2.475996 -3.144107 54.528843 -1.839233 58.703543 7.678443 0.000000 0.000000 0.000000 
7.815351 90.789658 0.158562 0.000000 0.000000 0.000000 8.805847 -35.874363 0.339715 -32.564419 3.072997 13.444628 44.385663 17.291172 -6.354822 -8.395862 19.490379 -3.181630 0.000000 0.000000 0.000000 19.775249 -68.809477 17.346000 -26.464382 -26.775692 -17.590428 35.405023 -5.731595 -0.525339 -15.280904 -8.967065 6.294550 0.000000 0.000000 0.000000 -5.195367 -32.345836 0.092156 2.155255 -17.161740 -2.397302 8.216001 -3.479467 -0.809600 2.614283 -1.829405 -0.128425 0.000000 0.000000 0.000000 -4.617806 -3.714040 -1.609396 -4.167004 -1.047250 -0.912665 0.000000 0.000000 0.000000 -3.020071 -2.566032 0.428571 -3.886419 -6.083283 -6.991826 1.312205 3.822165 -53.784895 2.516678 -29.040533 -4.861548 0.000000 0.000000 0.000000 -4.075432 -3.100617 -1.189019 -5.123392 -5.588063 0.955269 2.412053 -3.796794 54.461767 -1.880364 57.833233 7.596980 0.000000 0.000000 0.000000 
7.510896 90.866653 -0.296501 0.000000 0.000000 0.000000 8.488249 -37.367057 0.602097 -33.141861 2.532365 13.613448 45.297412 16.404455 -6.278409 -7.359922 18.709736 -3.636251 0.000000 0.000000 0.000000 20.850448 -68.373950 18.242412 -25.623520 -26.870965 -17.160398 35.291690 -5.782134 -0.608889 -15.288159 -8.982223 6.118443 0.000000 0.000000 0.000000 -5.328861 -32.986450 0.044676 2.230894 -17.911628 -2.416965 8.198740 -3.335262 -0.746130 2.562329 -1.755983 -0.069420 0.000000 0.000000 0.000000 -4.624639 -3.722641 -1.490863 -4.146435 -1.036048 -0.881951 0.000000 0.000000 0.000000 -3.058601 -2.600315 0.512590 -3.875536 -6.344926 -6.633758 1.241750 3.466748 -53.606323 2.663965 -29.135282 -4.904256 0.000000 0.000000 0.000000 -4.118721 -3.070061 -1.082738 -5.047856 -5.454452 1.298622 2.373591 -4.436689 54.374757 -1.893258 56.933547 7.488823 0.000000 0.000000 0.000000 
7.204603 90.955162 -0.767882 0.000000 0.000000 0.000000 8.114397 -38.891292 0.820244 -33.787703 1.982123 13.756488 46.166126 15.357141 -6.110339 -6.318218 17.727674 -4.087339 0.000000 0.000000 0.000000 21.845870 -67.833559 19.066506 -24.765556 -26.929621 -16.693059 35.147170 -5.862000 -0.702916 -15.328792 -9.021269 5.906921 0.000000 0.000000 0.000000 -5.453115 -33.582049 -0.003333 2.285675 -18.595462 -2.460103 8.181869 -3.183343 -0.677209 2.508559 -1.677404 -0.004631 0.000000 0.000000 0.000000 -4.618215 -3.736764 -1.379409 -4.120859 -1.031821 -0.854617 0.000000 0.000000 0.000000 -3.097655 -2.632265 0.592313 -3.864456 -6.611811 -6.300996 1.151100 3.097143 -53.452825 2.796270 -29.270291 -4.958149 0.000000 0.000000 0.000000 -4.155571 -3.041172 -0.978936 -4.969990 -5.341715 1.630619 2.361307 -5.060878 54.265942 -1.878497 56.006950 7.355368 0.000000 0.000000 0.000000 
6.892403 91.054504 -1.251672 0.000000 0.000000 0.000000 7.694159 -40.401433 1.001561 -34.493859 1.433989 13.888808 46.984711 14.180774 -5.864036 -5.293931 16.570353 -4.529508 0.000000 0.000000 0.000000 22.750122 -67.207586 19.808028 -23.907969 -26.952411 -16.200256 34.964695 -5.975295 -0.799489 -15.408910 -9.092787 5.670681 0.000000 0.000000 0.000000 -5.566385 -34.132863 -0.051402 2.310804 -19.205356 -2.533229 8.160652 -3.020929 -0.607030 2.450108 -1.591763 0.063593 0.000000 0.000000 0.000000 -4.599296 -3.751049 -1.280919 -4.090899 -1.032241 -0.833369 0.000000 0.000000 0.000000 -3.139236 -2.656586 0.665166 -3.854024 -6.868435 -6.000506 1.036356 2.718974 -53.319848 2.911245 -29.447951 -5.019185 0.000000 0.000000 0.000000 -4.187273 -3.009657 -0.879757 -4.891141 -5.238295 1.947059 2.374006 -5.668286 54.135666 -1.838338 55.053807 7.199715 0.000000 0.000000 0.000000 
